<svg width="262" height="83" viewBox="0 0 262 83" fill="none" xmlns="http://www.w3.org/2000/svg">
<rect width="262" height="83" rx="12" fill="#FF9843"/>
<mask id="mask0_2848_847" style="mask-type:alpha" maskUnits="userSpaceOnUse" x="0" y="0" width="262" height="83">
<rect width="262" height="83" rx="12" fill="#FF9843"/>
</mask>
<g mask="url(#mask0_2848_847)">
<circle cx="132" cy="3" r="65" fill="#FF8F33"/>
</g>
<path fill-rule="evenodd" clip-rule="evenodd" d="M141.565 15.3246C142.464 13.8952 142.482 12.7202 141.626 11.7269C140.77 10.7337 139.656 10.5762 138.277 11.1213C137.661 9.60712 136.799 8.96512 135.524 9.00146C134.249 9.0378 133.492 9.72825 132.969 11.1334C132.657 10.951 132.308 10.8385 131.948 10.804C131.587 10.7694 131.223 10.8137 130.881 10.9335C130.384 11.1158 129.937 11.4104 129.576 11.7936C128.671 12.8111 128.788 13.9921 129.853 15.7001C133.671 13.4046 137.562 13.3501 141.565 15.3246ZM146.743 27.2804C146.769 27.3467 146.785 27.4159 146.793 27.4863C147.676 31.3452 147.277 35.3811 145.653 39C144.497 37.7134 143.075 36.6835 141.482 35.9787C139.89 35.2738 138.163 34.9102 136.417 34.9118C134.822 34.9127 133.241 35.215 131.762 35.8021C132.483 34.6133 132.943 33.2885 133.11 31.9137C133.603 28.0496 131.103 24.1067 127.23 22.6592C127.12 22.6217 127.018 22.5728 126.918 22.5243C126.872 22.5022 126.826 22.4802 126.78 22.4593C127.673 18.8677 131.232 15.9363 135.21 15.5729C136.985 15.4143 138.769 15.7554 140.355 16.5565C141.94 17.3576 143.261 18.5856 144.163 20.0972C141.873 21.1632 140.937 22.956 141.663 24.9425C142.39 26.9291 144.2 27.7407 146.7 27.2017C146.703 27.2115 146.71 27.2204 146.719 27.2298C146.73 27.2437 146.743 27.2588 146.743 27.2804ZM136.498 23.1035C136.949 23.4894 137.525 23.7054 138.123 23.713C138.729 23.7101 139.315 23.4924 139.771 23.0998C140.228 22.7072 140.526 22.1659 140.61 21.575C140.643 21.4556 140.651 21.3308 140.632 21.2084C140.614 21.086 140.57 20.9686 140.504 20.8635C140.437 20.7584 140.35 20.6679 140.246 20.5975C140.143 20.5272 140.026 20.4785 139.902 20.4546C139.416 20.388 139.065 20.7089 138.954 21.3146C138.954 21.5299 138.867 21.7363 138.712 21.8885C138.558 22.0407 138.348 22.1262 138.129 22.1262C137.91 22.1262 137.7 22.0407 137.545 21.8885C137.391 21.7363 137.304 21.5299 137.304 21.3146C137.193 20.6787 136.805 20.3758 136.318 20.4606C135.832 20.5454 135.561 20.9997 135.66 21.6053C135.75 22.1866 136.047 22.7175 136.498 23.1035ZM123.326 23.713C123.929 23.7092 124.531 23.7416 125.13 23.8099C126.883 24.0752 128.482 24.9467 129.64 26.2678C130.798 27.5889 131.439 29.273 131.448 31.0173C131.46 34.6513 128.714 37.928 125.105 38.2853C122.989 38.455 120.864 38.4854 118.744 38.3762C118.388 38.3437 118.044 38.2354 117.734 38.0588C117.425 37.8821 117.159 37.6413 116.954 37.3531C116.748 37.0649 116.61 36.7363 116.547 36.39C116.484 36.0437 116.498 35.6881 116.589 35.3478C116.711 34.9134 116.945 34.5175 117.269 34.199C117.592 33.8805 117.995 33.6502 118.437 33.5308C116.004 33.3915 115.124 32.8525 114.877 31.4352C114.68 30.2724 115.327 29.2549 116.725 28.6492C116.187 28.6357 115.651 28.5953 115.118 28.5281C114.485 28.4399 113.912 28.1137 113.52 27.6181C113.127 27.1225 112.946 26.4964 113.014 25.8718C113.082 25.2472 113.394 24.6729 113.884 24.2702C114.374 23.8674 115.004 23.6677 115.641 23.713H123.326ZM122.075 33.9638C122.659 34.3461 123.345 34.5496 124.046 34.5484C124.513 34.55 124.975 34.4606 125.406 34.2854C125.837 34.1102 126.229 33.8526 126.558 33.5276C126.887 33.2027 127.148 32.8167 127.324 32.392C127.501 31.9674 127.59 31.5125 127.587 31.0537C127.586 30.3637 127.376 29.6896 126.986 29.1165C126.595 28.5435 126.04 28.0973 125.392 27.8344C124.743 27.5714 124.03 27.5036 123.342 27.6393C122.654 27.7751 122.023 28.1085 121.528 28.5972C121.033 29.0859 120.696 29.7081 120.56 30.3851C120.424 31.062 120.496 31.7634 120.766 32.4004C121.035 33.0374 121.491 33.5814 122.075 33.9638ZM145.598 21.6599C147.109 22.0414 148.516 22.742 149.724 23.7131C148.474 24.7158 147.008 25.4243 145.438 25.7845C145.061 25.8283 144.679 25.7675 144.336 25.6088C143.856 25.399 143.474 25.0207 143.263 24.5479C143.052 24.0751 143.028 23.542 143.196 23.0529C143.347 22.5673 143.677 22.1549 144.122 21.897C144.566 21.6391 145.093 21.5545 145.598 21.6599Z" fill="white"/>
</svg>
