<svg width="80" height="80" viewBox="0 0 80 80" fill="none" xmlns="http://www.w3.org/2000/svg">
<rect x="0.5" y="0.5" width="79" height="79" rx="15.5" fill="#FF9843" fill-opacity="0.07" stroke="#FF9843"/>
<path d="M20.7519 36.868C21.5371 31.8734 24.2206 27.4844 28.3082 24.5086C31.8581 21.9237 36.0979 20.675 40.4246 20.9066L36.7703 24.5605L37.8465 25.6367L42.3729 21.1103C42.3794 21.1113 42.3856 21.1121 42.3921 21.1132L42.3961 21.0871L43.165 20.3182L42.6052 19.7583L42.6284 19.6098C42.5613 19.5993 42.4943 19.5906 42.4273 19.5808L37.8465 15L36.7703 16.0762L40.0618 19.3673C35.5408 19.2224 31.1267 20.5736 27.412 23.2781C22.9962 26.4932 20.0967 31.2356 19.2484 36.631C18.4856 41.4824 19.493 46.4469 22.0852 50.6109L23.3773 49.8065C20.9786 45.9537 20.0459 41.3584 20.7521 36.8683L20.7519 36.868Z" fill="#FF9843"/>
<path d="M25.364 52.4545L24.2306 53.4702C25.3488 54.7173 26.6167 55.824 27.999 56.7595L28.8519 55.4989C27.5725 54.6333 26.399 53.6089 25.364 52.4545Z" fill="#FF9843"/>
<path d="M57.2457 29.0279L55.9535 29.8323C58.3526 33.6855 59.2849 38.2807 58.5791 42.7714C57.7939 47.766 55.1103 52.1551 51.0227 55.1308C47.4728 57.7154 43.2327 58.9641 38.9064 58.7325L42.5607 55.0786L41.4845 54.0024L36.958 58.5288C36.9515 58.5277 36.9454 58.527 36.9388 58.5259L36.9349 58.552L36.166 59.3209L36.7258 59.8807L36.7026 60.0293C36.7696 60.0398 36.837 60.0492 36.9041 60.059L41.4845 64.6394L42.5607 63.5632L39.2688 60.2713C39.4884 60.2782 39.7076 60.2826 39.9264 60.2826C44.2166 60.2826 48.3847 58.9343 51.9194 56.361C56.3353 53.1459 59.2348 48.4035 60.0831 43.0081C60.8455 38.1566 59.8381 33.1922 57.2459 29.0282L57.2457 29.0279Z" fill="#FF9843"/>
<path d="M53.9673 27.1848L55.1007 26.1691C53.9825 24.922 52.7146 23.8153 51.3323 22.8798L50.4794 24.1404C51.7588 25.006 52.9324 26.0304 53.9673 27.1848Z" fill="#FF9843"/>
<path d="M52.1409 39.8484C52.1409 32.8505 46.4478 27.1569 39.4495 27.1569C32.4515 27.1569 26.758 32.8505 26.758 39.8484C26.758 46.8463 32.4512 52.5399 39.4495 52.5399C46.4474 52.5399 52.1409 46.8463 52.1409 39.8484ZM28.2802 39.8484C28.2802 33.6896 33.2907 28.6791 39.4495 28.6791C45.6083 28.6791 50.6187 33.6897 50.6187 39.8484C50.6187 46.0072 45.6082 51.0177 39.4495 51.0177C33.2906 51.0177 28.2802 46.0068 28.2802 39.8484Z" fill="#FF9843"/>
<path d="M39.7053 45C38.6421 45 37.8105 44.7661 37.2105 44.2984C36.6105 43.8254 36.3105 43.1004 36.3105 42.1233V37.017H38.2211V42.0999C38.2211 42.5885 38.3526 42.9419 38.6158 43.1602C38.8789 43.3733 39.2447 43.4798 39.7132 43.4798C40.0289 43.4798 40.3 43.4226 40.5263 43.3083C40.7579 43.194 40.9526 43.0484 41.1105 42.8717C41.2 42.7678 41.2737 42.6586 41.3316 42.5443C41.3947 42.43 41.4421 42.3156 41.4737 42.2013C41.5053 42.0817 41.5211 41.9674 41.5211 41.8583C41.5211 41.6192 41.4395 41.4373 41.2763 41.3125C41.1184 41.1878 40.8553 41.1254 40.4868 41.1254C40.3026 41.1254 40.1158 41.1332 39.9263 41.1488C39.7421 41.1592 39.5526 41.1722 39.3579 41.1878L39.4763 39.73C39.6816 39.7196 39.8789 39.7092 40.0684 39.6988C40.2579 39.6884 40.4632 39.6832 40.6842 39.6832C41.5789 39.6832 42.25 39.8547 42.6974 40.1977C43.15 40.5408 43.3763 41.0527 43.3763 41.7335C43.3763 41.9258 43.3553 42.1285 43.3132 42.3416C43.2711 42.5495 43.2079 42.7574 43.1237 42.9653C43.0447 43.1732 42.9368 43.3707 42.8 43.5578C42.5053 43.9943 42.0974 44.3451 41.5763 44.6102C41.0553 44.8701 40.4316 45 39.7053 45ZM35.1737 38.4515L35.0711 37.0014H43.8895L44 38.4515H35.1737ZM36.3026 37.1417V36.2998C36.3026 36.0503 36.2421 35.8554 36.1211 35.7151C36.0053 35.5748 35.8158 35.5046 35.5526 35.5046H35.1026L35 34H35.5447C36.4184 34 37.0816 34.1819 37.5342 34.5457C37.9921 34.9095 38.2211 35.4942 38.2211 36.2998V37.1417H36.3026Z" fill="#FF9843"/>
</svg>
