<svg width="147" height="177" viewBox="0 0 147 177" fill="none" xmlns="http://www.w3.org/2000/svg">
<rect width="147" height="176" rx="12" fill="#00D054"/>
<mask id="mask0_2844_832" style="mask-type:alpha" maskUnits="userSpaceOnUse" x="0" y="1" width="147" height="176">
<rect y="1" width="147" height="176" rx="12" fill="#00FD66"/>
</mask>
<g mask="url(#mask0_2844_832)">
<circle cx="22.5" cy="128.5" r="136.5" fill="#00B74A"/>
</g>
<path fill-rule="evenodd" clip-rule="evenodd" d="M40.5648 20.3246C41.4638 18.8952 41.4823 17.7202 40.6264 16.7269C39.7704 15.7337 38.6559 15.5762 37.2766 16.1213C36.6608 14.6071 35.7987 13.9651 34.5241 14.0015C33.2495 14.0378 32.4921 14.7282 31.9687 16.1334C31.6571 15.951 31.3085 15.8385 30.9476 15.804C30.5868 15.7694 30.2227 15.8137 29.8812 15.9335C29.3836 16.1158 28.9365 16.4104 28.5758 16.7936C27.6706 17.8111 27.7876 18.9921 28.8529 20.7001C32.6706 18.4046 36.5623 18.3501 40.5648 20.3246ZM45.7434 32.2804C45.7688 32.3467 45.7854 32.4159 45.7927 32.4863C46.676 36.3452 46.2766 40.3811 44.6535 44C43.4966 42.7134 42.0748 41.6835 40.4823 40.9787C38.8899 40.2738 37.1632 39.9102 35.417 39.9118C33.8216 39.9127 32.2413 40.215 30.7618 40.8021C31.4833 39.6133 31.9428 38.2885 32.1103 36.9137C32.6029 33.0496 30.1029 29.1067 26.2297 27.6592C26.1197 27.6217 26.0184 27.5728 25.9178 27.5243L25.9178 27.5243L25.9178 27.5243C25.872 27.5022 25.8264 27.4802 25.7802 27.4593C26.6731 23.8677 30.2322 20.9363 34.2101 20.5729C35.985 20.4143 37.7692 20.7554 39.3545 21.5565C40.9398 22.3576 42.2608 23.5856 43.1633 25.0972C40.8727 26.1632 39.9367 27.956 40.6633 29.9425C41.3899 31.9291 43.2003 32.7407 45.7003 32.2017C45.7028 32.2115 45.7104 32.2204 45.7185 32.2298C45.7304 32.2437 45.7434 32.2588 45.7434 32.2804ZM35.4981 28.1035C35.9492 28.4894 36.5248 28.7054 37.1226 28.713C37.7293 28.7101 38.3145 28.4924 38.7714 28.0998C39.2282 27.7072 39.526 27.1659 39.6103 26.575C39.6431 26.4556 39.6506 26.3308 39.6322 26.2084C39.6139 26.086 39.5702 25.9686 39.5037 25.8635C39.4373 25.7584 39.3497 25.6679 39.2462 25.5975C39.1427 25.5272 39.0256 25.4785 38.9022 25.4546C38.4158 25.388 38.0648 25.7089 37.9539 26.3146C37.9539 26.5299 37.867 26.7363 37.7123 26.8885C37.5575 27.0407 37.3476 27.1262 37.1288 27.1262C36.91 27.1262 36.7001 27.0407 36.5454 26.8885C36.3906 26.7363 36.3037 26.5299 36.3037 26.3146C36.1928 25.6787 35.8049 25.3758 35.3185 25.4606C34.832 25.5454 34.5611 25.9997 34.6596 26.6053C34.7499 27.1866 35.0471 27.7175 35.4981 28.1035ZM22.3257 28.7134C22.9286 28.7096 23.5311 28.742 24.1299 28.8103C25.8828 29.0755 27.4819 29.947 28.64 31.2682C29.798 32.5893 30.439 34.2734 30.4477 36.0177C30.46 39.6517 27.7137 42.9283 24.1053 43.2857C21.9894 43.4554 19.8644 43.4857 17.7444 43.3765C17.3883 43.3441 17.0436 43.2358 16.7343 43.0591C16.4251 42.8824 16.1586 42.6416 15.9535 42.3535C15.7484 42.0653 15.6096 41.7366 15.5467 41.3903C15.4838 41.044 15.4983 40.6884 15.5892 40.3482C15.7106 39.9138 15.9447 39.5179 16.2685 39.1994C16.5924 38.8808 16.9949 38.6506 17.4365 38.5312C15.0042 38.3919 14.1237 37.8528 13.8774 36.4356C13.6803 35.2727 14.3269 34.2552 15.7247 33.6496C15.1872 33.6361 14.6508 33.5956 14.1176 33.5284C13.4852 33.4403 12.9124 33.114 12.52 32.6185C12.1275 32.1229 11.9461 31.4968 12.014 30.8722C12.0819 30.2476 12.3938 29.6733 12.8839 29.2705C13.374 28.8678 14.004 28.668 14.6409 28.7134H22.3257ZM21.0746 38.9641C21.6586 39.3465 22.3447 39.5499 23.0462 39.5487C23.5127 39.5503 23.9748 39.4609 24.4059 39.2857C24.837 39.1105 25.2285 38.853 25.5578 38.528C25.8871 38.203 26.1476 37.817 26.3242 37.3924C26.5008 36.9677 26.5901 36.5128 26.5869 36.054C26.5856 35.3641 26.3764 34.6899 25.9857 34.1169C25.5949 33.5439 25.0402 33.0976 24.3916 32.8347C23.7431 32.5718 23.0298 32.5039 22.342 32.6397C21.6543 32.7755 21.0229 33.1088 20.5277 33.5976C20.0325 34.0863 19.6958 34.7085 19.5601 35.3854C19.4245 36.0624 19.496 36.7637 19.7655 37.4007C20.0351 38.0377 20.4907 38.5818 21.0746 38.9641ZM44.598 26.6595C46.1085 27.0409 47.5164 27.7416 48.7236 28.7127C47.4742 29.7154 46.0083 30.4239 44.4379 30.784C44.061 30.8279 43.6792 30.767 43.3357 30.6084C42.8561 30.3986 42.4735 30.0203 42.2628 29.5475C42.052 29.0747 42.0284 28.5415 42.1965 28.0525C42.347 27.5669 42.6771 27.1544 43.1217 26.8965C43.5663 26.6387 44.0931 26.5541 44.598 26.6595Z" fill="#00D054"/>
</svg>
