<svg width="146" height="175" viewBox="0 0 146 175" fill="none" xmlns="http://www.w3.org/2000/svg">
<rect width="145.103" height="173.729" rx="12" fill="#3AAAFF"/>
<mask id="mask0_2844_845" style="mask-type:alpha" maskUnits="userSpaceOnUse" x="0" y="0" width="146" height="175">
<rect y="0.986328" width="145.103" height="173.729" rx="12" fill="#00FD66"/>
</mask>
<g mask="url(#mask0_2844_845)">
<circle cx="22.2096" cy="126.841" r="134.739" fill="#179BFF"/>
</g>
<path fill-rule="evenodd" clip-rule="evenodd" d="M40.042 20.0623C40.9294 18.6514 40.9476 17.4916 40.1028 16.5111C39.2579 15.5306 38.1577 15.3752 36.7962 15.9132C36.1884 14.4186 35.3375 13.7849 34.0793 13.8208C32.8211 13.8566 32.0734 14.5382 31.5568 15.9252C31.2493 15.7452 30.9051 15.6342 30.5489 15.6C30.1928 15.5659 29.8333 15.6096 29.4963 15.7279C29.0051 15.9078 28.5638 16.1986 28.2077 16.5768C27.3142 17.5812 27.4297 18.747 28.4812 20.433C32.2497 18.1671 36.0912 18.1133 40.042 20.0623ZM45.1536 31.8634C45.1787 31.9288 45.195 31.9971 45.2022 32.0666C46.0741 35.8757 45.6799 39.8595 44.0777 43.4317C42.9357 42.1617 41.5323 41.1452 39.9604 40.4494C38.3885 39.7537 36.6841 39.3947 34.9604 39.3963C33.3856 39.3972 31.8257 39.6956 30.3653 40.2751C31.0775 39.1016 31.5311 37.7939 31.6964 36.4369C32.1826 32.6226 29.7149 28.7306 25.8917 27.3018C25.7831 27.2648 25.6831 27.2165 25.5838 27.1686L25.5838 27.1686C25.5386 27.1468 25.4936 27.1251 25.448 27.1045C26.3293 23.5593 29.8426 20.6657 33.7691 20.307C35.5211 20.1504 37.2823 20.4871 38.8472 21.2778C40.412 22.0686 41.7159 23.2808 42.6068 24.7729C40.3457 25.8251 39.4218 27.5947 40.139 29.5557C40.8563 31.5166 42.6433 32.3177 45.111 31.7857C45.1135 31.7954 45.121 31.8041 45.129 31.8135C45.1407 31.8271 45.1536 31.8421 45.1536 31.8634ZM35.0405 27.7403C35.4857 28.1213 36.054 28.3345 36.6441 28.342C37.2429 28.3391 37.8206 28.1243 38.2715 27.7367C38.7224 27.3492 39.0164 26.8149 39.0996 26.2316C39.132 26.1137 39.1394 25.9905 39.1213 25.8697C39.1032 25.7489 39.06 25.633 38.9944 25.5293C38.9289 25.4256 38.8423 25.3362 38.7402 25.2668C38.6381 25.1973 38.5225 25.1493 38.4007 25.1256C37.9205 25.0599 37.574 25.3767 37.4646 25.9746C37.4646 26.187 37.3788 26.3908 37.2261 26.5411C37.0733 26.6913 36.8662 26.7757 36.6501 26.7757C36.4341 26.7757 36.227 26.6913 36.0742 26.5411C35.9215 26.3908 35.8356 26.187 35.8356 25.9746C35.7262 25.3468 35.3433 25.0479 34.8631 25.1316C34.383 25.2153 34.1155 25.6637 34.2128 26.2615C34.302 26.8353 34.5953 27.3594 35.0405 27.7403ZM22.0376 28.3412C22.6327 28.3375 23.2274 28.3694 23.8185 28.4369C25.5488 28.6987 27.1273 29.5589 28.2704 30.863C29.4135 32.1671 30.0462 33.8294 30.0548 35.5513C30.0669 39.1384 27.3561 42.3727 23.7942 42.7254C21.7057 42.893 19.6081 42.9229 17.5154 42.8151C17.1639 42.7831 16.8237 42.6762 16.5184 42.5018C16.2131 42.3274 15.9501 42.0897 15.7477 41.8053C15.5452 41.5208 15.4082 41.1964 15.3461 40.8546C15.284 40.5127 15.2983 40.1617 15.3881 39.8259C15.5078 39.3971 15.7389 39.0063 16.0586 38.6919C16.3783 38.3774 16.7756 38.1502 17.2115 38.0323C14.8106 37.8948 13.9414 37.3627 13.6983 35.9638C13.5038 34.8159 14.142 33.8115 15.5218 33.2137C14.9913 33.2004 14.4618 33.1605 13.9354 33.0941C13.3112 33.0071 12.7458 32.6851 12.3584 32.1959C11.971 31.7067 11.7919 31.0887 11.8589 30.4721C11.926 29.8556 12.2338 29.2887 12.7176 28.8912C13.2014 28.4936 13.8233 28.2964 14.452 28.3412H22.0376ZM20.8027 38.4597C21.3791 38.8371 22.0564 39.0379 22.7488 39.0367C23.2092 39.0383 23.6654 38.9501 24.091 38.7771C24.5165 38.6042 24.903 38.35 25.228 38.0292C25.553 37.7084 25.8102 37.3274 25.9845 36.9082C26.1589 36.489 26.247 36.04 26.2438 35.5871C26.2426 34.9061 26.036 34.2406 25.6503 33.675C25.2646 33.1093 24.7171 32.6689 24.0769 32.4094C23.4367 32.1498 22.7326 32.0828 22.0537 32.2169C21.3748 32.3509 20.7516 32.6799 20.2628 33.1624C19.774 33.6448 19.4416 34.2589 19.3077 34.9272C19.1738 35.5954 19.2444 36.2877 19.5105 36.9164C19.7766 37.5452 20.2263 38.0823 20.8027 38.4597ZM44.0228 26.3161C45.5138 26.6926 46.9035 27.3843 48.0952 28.3428C46.8619 29.3326 45.4149 30.032 43.8647 30.3875C43.4927 30.4307 43.1158 30.3707 42.7767 30.2141C42.3034 30.007 41.9257 29.6335 41.7177 29.1668C41.5097 28.7002 41.4864 28.1739 41.6523 27.6912C41.8008 27.2118 42.1267 26.8047 42.5656 26.5501C43.0044 26.2956 43.5244 26.2121 44.0228 26.3161Z" fill="#3AAAFF"/>
</svg>
