<svg width="80" height="80" viewBox="0 0 80 80" fill="none" xmlns="http://www.w3.org/2000/svg">
<rect x="0.5" y="0.5" width="79" height="79" rx="15.5" fill="#FF9843" fill-opacity="0.07" stroke="#FF9843"/>
<path d="M54.6818 57.9997H51.3309C51.0152 57.9992 50.7102 57.8878 50.4709 57.686C50.2319 57.4842 50.0746 57.2051 50.0277 56.8994C47.5418 57.9714 44.5681 57.8195 41.8921 57.7982V57.798C39.8401 57.7972 37.8258 57.2557 36.0608 56.2307L27.1932 51.0827C26.5094 50.6737 26.0866 49.9504 26.0731 49.1659C26.0596 48.3813 26.4572 47.6445 27.1267 47.2132C27.7962 46.7819 28.6445 46.7159 29.3752 47.0384L35.8964 50.0413C36.2704 48.8231 38.3441 48.3229 39.4057 47.7241C42.721 46.1708 46.52 45.9264 50.0143 47.0413C49.9692 46.6709 50.0873 46.2993 50.3385 46.0191C50.5896 45.7389 50.9507 45.5761 51.3316 45.5716H54.6825H54.6822C55.0316 45.5719 55.3666 45.708 55.6135 45.9498C55.8605 46.1913 55.9995 46.5193 56 46.8613V56.7101V56.7098C55.9997 57.0518 55.8607 57.3798 55.6135 57.6216C55.3666 57.8634 55.0316 57.9995 54.6822 58L54.6818 57.9997ZM51.2023 47.8831V56.7093C51.2023 56.7792 51.2598 56.8358 51.3309 56.836H54.6818C54.7532 56.836 54.8113 56.7792 54.8113 56.7093V46.8612C54.811 46.7914 54.7532 46.735 54.6818 46.735H51.3309C51.2601 46.7353 51.2025 46.7916 51.2023 46.8612C51.2036 46.9272 51.2012 47.8138 51.2023 47.8831V47.8831ZM41.9008 56.6349C44.5915 56.6536 47.7227 56.8216 50.0085 55.6135V48.2698C48.3764 47.6961 46.6446 47.4453 44.913 47.5317C43.1812 47.6182 41.4844 48.0399 39.9205 48.7731L37.5365 49.895C37.232 50.0445 37.0206 50.3294 36.9696 50.6592C36.9187 50.9891 37.0344 51.3225 37.28 51.5536C37.5256 51.7848 37.8704 51.8848 38.2049 51.8219L43.9789 50.6301V50.6299C44.2988 50.566 44.6117 50.767 44.6791 51.0802C44.7462 51.3931 44.5428 51.7006 44.2237 51.7684L38.4502 52.9605C37.8728 53.0773 37.2718 52.9672 36.7767 52.6538C36.2818 52.3403 35.9327 51.8484 35.8049 51.2851L28.876 48.0942V48.094C28.5158 47.9317 28.0953 47.962 27.7635 48.175C27.4319 48.388 27.2354 48.7531 27.2439 49.1416C27.2524 49.5298 27.4646 49.8864 27.8054 50.0853L36.6676 55.23C38.2516 56.1495 40.0596 56.6349 41.9012 56.6347L41.9008 56.6349ZM54.0182 42.833H33.5893C33.0641 42.8325 32.5604 42.6279 32.1888 42.2643C31.8174 41.9004 31.6084 41.4073 31.6079 40.8931V36.1757C30.1915 35.9663 28.8843 35.3073 27.888 34.2998H26.9753C26.9347 34.6112 26.7798 34.8974 26.5392 35.1051C26.2987 35.3126 25.9891 35.4274 25.6687 35.428H22.3178C21.9684 35.4277 21.6334 35.2916 21.3865 35.0498C21.1395 34.8083 21.0005 34.4803 21 34.1383V24.2902C21.0005 23.9482 21.1395 23.6202 21.3865 23.3784C21.6334 23.1366 21.9684 23.0005 22.3178 23H25.6687C25.9891 23.0005 26.2987 23.1153 26.5392 23.3228C26.7798 23.5306 26.9347 23.8168 26.9753 24.1281H42.4249C45.0874 24.2878 46.6142 25.6125 46.9007 27.9724H54.0184C54.5436 27.9732 55.0473 28.1776 55.4187 28.5414C55.7903 28.905 55.9993 29.3982 55.9998 29.9126V40.8929C55.9993 41.4071 55.7903 41.9003 55.4187 42.2641C55.0473 42.6277 54.5436 42.8324 54.0184 42.8329L54.0182 42.833ZM32.7962 31.7922V40.8931C32.7938 41.0998 32.8765 41.2984 33.0259 41.4447C33.1752 41.5909 33.3781 41.6719 33.5893 41.6696H54.0182C54.4562 41.6693 54.8108 41.3218 54.8113 40.893V29.9127C54.8108 29.484 54.4562 29.1365 54.0182 29.136H40.0103L40.6148 29.7278L50.6809 29.7281C50.8387 29.7278 50.9899 29.7891 51.1013 29.8982C51.2127 30.0072 51.2753 30.1553 51.2751 30.3098C51.2758 30.9164 51.5223 31.4979 51.9605 31.9269C52.3987 32.3559 52.9928 32.5972 53.6124 32.598C53.77 32.5977 53.9212 32.659 54.0326 32.7684C54.144 32.8774 54.2066 33.0255 54.2066 33.1797V37.6263V37.626C54.2066 37.7805 54.144 37.9286 54.0326 38.0376C53.9212 38.1467 53.77 38.208 53.6124 38.2077C52.9928 38.2085 52.3987 38.4498 51.9605 38.8788C51.5223 39.3079 51.2759 39.8896 51.2751 40.4962C51.2753 40.6505 51.2127 40.7985 51.1013 40.9076C50.9899 41.0167 50.8387 41.0779 50.6809 41.0779H36.9269C36.7691 41.0779 36.6182 41.0167 36.5065 40.9076C36.3951 40.7985 36.3325 40.6505 36.3327 40.4962C36.3301 39.8877 36.0813 39.3052 35.6407 38.8762C35.2002 38.4472 34.6036 38.2067 33.9821 38.2077C33.8246 38.208 33.6734 38.1467 33.562 38.0376C33.4506 37.9286 33.388 37.7805 33.388 37.626V33.1797C33.388 33.0239 33.4519 32.8746 33.5654 32.7652C33.6789 32.6559 33.8322 32.5957 33.9914 32.598C34.7938 32.5915 35.5383 32.1879 35.9694 31.5254L35.4169 30.9853H35.4171C34.6688 31.5501 33.74 31.8363 32.7962 31.7924L32.7962 31.7922ZM37.4704 39.9144H50.1372C50.2614 39.2106 50.6052 38.5616 51.121 38.0566C51.6367 37.5514 52.2995 37.2149 53.0186 37.0934V33.7126C52.2995 33.5908 51.6366 33.2545 51.121 32.7494C50.6051 32.2443 50.2614 31.5953 50.1372 30.8915H41.6676C42.0068 31.5288 42.0145 32.2863 41.6883 32.9304C41.362 33.5742 40.7408 34.0263 40.0172 34.1474C39.2936 34.2681 38.5546 34.043 38.0289 33.5415L36.8254 32.3632C36.2817 33.0805 35.4758 33.564 34.5764 33.7132V37.0934C35.2973 37.2134 35.9626 37.5489 36.4809 38.054C36.9992 38.5591 37.3448 39.2092 37.4705 39.9145L37.4704 39.9144ZM26.9853 33.1365H28.1458C28.9451 33.2625 29.2551 34.5747 31.6076 35.0014V31.4651C31.1734 31.2506 30.7766 30.9699 30.432 30.6333C30.2047 30.4076 30.2039 30.0456 30.4299 29.8186C30.6559 29.5919 31.0256 29.5839 31.2617 29.8007C31.5943 30.1412 32.0049 30.3993 32.4593 30.5538C33.4199 30.76 34.4203 30.4608 35.0994 29.7649C35.3355 29.5771 35.6787 29.5948 35.8933 29.8059L38.8685 32.7189C39.1473 32.9918 39.5537 33.0986 39.9343 32.9986C40.3152 32.8989 40.6128 32.6078 40.7149 32.2348C40.8168 31.8619 40.708 31.4643 40.4295 31.1914C40.4165 31.1649 39.9271 30.7102 39.9266 30.6987L38.1775 28.9865C38.1619 28.973 38.1473 28.9585 38.1335 28.9434L37.5537 28.3757C36.9995 27.8511 37.8576 27.0108 38.394 27.5533L38.8221 27.9724H45.7021C45.4496 26.2675 44.3828 25.411 42.3878 25.2905L26.9851 25.2916L26.9853 33.1365ZM22.3175 24.1633C22.2461 24.1633 22.188 24.2202 22.188 24.2901V34.1388V34.1386C22.1883 34.2084 22.2461 34.2648 22.3175 34.2648H25.6684C25.7392 34.2645 25.7968 34.2082 25.7971 34.1386V24.2905C25.7971 24.2206 25.7395 24.164 25.6684 24.1637L22.3175 24.1633ZM43.801 37.6261C43.1898 37.6427 42.5983 37.4134 42.1646 36.9914C41.7309 36.5694 41.493 35.9915 41.506 35.3929C41.5307 34.6066 41.9731 33.8901 42.6731 33.5036C43.3734 33.1172 44.2288 33.1172 44.9286 33.5039C45.6286 33.8903 46.071 34.6071 46.0952 35.3937C46.1076 35.9918 45.8694 36.5689 45.436 36.9906C45.0026 37.4124 44.4119 37.642 43.801 37.6261L43.801 37.6261ZM42.6943 35.4028C42.6975 35.7887 42.9103 36.144 43.253 36.3351C43.5954 36.5263 44.0161 36.5244 44.357 36.3302C44.6978 36.1362 44.9074 35.7791 44.9068 35.3932C44.9039 35.007 44.6909 34.6518 44.3485 34.4606C44.0058 34.2695 43.5854 34.2713 43.2445 34.4656C42.9036 34.6596 42.6941 35.0166 42.6943 35.4028Z" fill="#FF9843"/>
</svg>
