<svg width="146" height="175" viewBox="0 0 146 175" fill="none" xmlns="http://www.w3.org/2000/svg">
<rect y="0.28418" width="145.103" height="173.729" rx="12" fill="#FF5676"/>
<mask id="mask0_2844_858" style="mask-type:alpha" maskUnits="userSpaceOnUse" x="0" y="1" width="146" height="174">
<rect y="1.27051" width="145.103" height="173.729" rx="12" fill="#00FD66"/>
</mask>
<g mask="url(#mask0_2844_858)">
<circle cx="22.2096" cy="127.125" r="134.739" fill="#FF2B52"/>
</g>
<path fill-rule="evenodd" clip-rule="evenodd" d="M40.042 20.3455C40.9294 18.9346 40.9477 17.7748 40.1028 16.7943C39.2579 15.8138 38.1577 15.6584 36.7962 16.1964C36.1884 14.7018 35.3375 14.0681 34.0793 14.104C32.8211 14.1398 32.0735 14.8214 31.5568 16.2084C31.2493 16.0284 30.9051 15.9174 30.549 15.8833C30.1928 15.8491 29.8333 15.8928 29.4963 16.0111C29.0051 16.191 28.5638 16.4818 28.2077 16.86C27.3142 17.8644 27.4297 19.0302 28.4812 20.7162C32.2497 18.4503 36.0912 18.3965 40.042 20.3455ZM45.1536 32.1466C45.1787 32.212 45.195 32.2803 45.2022 32.3498C46.0741 36.1589 45.6799 40.1427 44.0777 43.7149C42.9357 42.445 41.5323 41.4284 39.9604 40.7326C38.3885 40.0369 36.6841 39.6779 34.9604 39.6795C33.3856 39.6804 31.8257 39.9788 30.3653 40.5583C31.0775 39.3848 31.5311 38.0771 31.6964 36.7201C32.1826 32.9058 29.7149 29.0138 25.8917 27.585C25.7831 27.548 25.6831 27.4997 25.5838 27.4518L25.5838 27.4518C25.5386 27.43 25.4936 27.4083 25.448 27.3877C26.3293 23.8425 29.8426 20.9489 33.7691 20.5902C35.5211 20.4336 37.2823 20.7703 38.8472 21.561C40.412 22.3518 41.7159 23.564 42.6068 25.0561C40.3457 26.1083 39.4218 27.878 40.139 29.8389C40.8563 31.7998 42.6433 32.6009 45.111 32.0689C45.1135 32.0786 45.121 32.0873 45.129 32.0967C45.1407 32.1103 45.1536 32.1253 45.1536 32.1466ZM35.0405 28.0235C35.4857 28.4045 36.054 28.6178 36.6441 28.6252C37.2429 28.6223 37.8206 28.4075 38.2715 28.0199C38.7224 27.6324 39.0164 27.0981 39.0996 26.5148C39.132 26.3969 39.1394 26.2737 39.1213 26.1529C39.1032 26.0321 39.06 25.9162 38.9944 25.8125C38.9289 25.7088 38.8423 25.6194 38.7402 25.55C38.6381 25.4805 38.5225 25.4325 38.4007 25.4088C37.9205 25.3431 37.574 25.6599 37.4646 26.2578C37.4646 26.4702 37.3788 26.674 37.2261 26.8243C37.0733 26.9745 36.8662 27.0589 36.6501 27.0589C36.4341 27.0589 36.227 26.9745 36.0742 26.8243C35.9215 26.674 35.8356 26.4702 35.8356 26.2578C35.7262 25.63 35.3433 25.3311 34.8631 25.4148C34.383 25.4985 34.1155 25.9469 34.2128 26.5447C34.302 27.1185 34.5953 27.6426 35.0405 28.0235ZM22.0376 28.6254C22.6327 28.6216 23.2274 28.6536 23.8185 28.721C25.5488 28.9829 27.1273 29.8431 28.2704 31.1472C29.4135 32.4513 30.0462 34.1136 30.0548 35.8355C30.0669 39.4225 27.3561 42.6569 23.7942 43.0096C21.7057 43.1771 19.6081 43.2071 17.5154 43.0993C17.1639 43.0673 16.8237 42.9604 16.5184 42.786C16.2131 42.6116 15.9501 42.3739 15.7477 42.0894C15.5452 41.805 15.4082 41.4806 15.3461 41.1387C15.284 40.7969 15.2983 40.4459 15.3881 40.1101C15.5078 39.6813 15.7389 39.2905 16.0586 38.9761C16.3783 38.6616 16.7756 38.4343 17.2115 38.3165C14.8106 38.179 13.9414 37.6469 13.6983 36.2479C13.5038 35.1001 14.142 34.0957 15.5218 33.4979C14.9913 33.4846 14.4618 33.4447 13.9354 33.3783C13.3112 33.2913 12.7458 32.9692 12.3584 32.4801C11.971 31.9909 11.7919 31.3729 11.8589 30.7563C11.926 30.1398 12.2338 29.5729 12.7176 29.1754C13.2014 28.7778 13.8233 28.5806 14.452 28.6254H22.0376ZM20.8027 38.7439C21.3791 39.1213 22.0564 39.3221 22.7488 39.3209C23.2092 39.3225 23.6654 39.2343 24.091 39.0613C24.5165 38.8884 24.903 38.6342 25.228 38.3134C25.553 37.9926 25.8102 37.6115 25.9845 37.1924C26.1589 36.7732 26.247 36.3242 26.2438 35.8713C26.2426 35.1902 26.036 34.5248 25.6503 33.9592C25.2646 33.3935 24.7171 32.9531 24.0769 32.6935C23.4367 32.434 22.7326 32.367 22.0537 32.501C21.3748 32.6351 20.7516 32.9641 20.2628 33.4465C19.774 33.929 19.4416 34.5431 19.3077 35.2113C19.1738 35.8796 19.2444 36.5718 19.5105 37.2006C19.7766 37.8294 20.2263 38.3665 20.8027 38.7439ZM44.0228 26.5993C45.5138 26.9759 46.9035 27.6675 48.0952 28.626C46.8619 29.6158 45.4149 30.3152 43.8647 30.6707C43.4927 30.7139 43.1158 30.6539 42.7767 30.4973C42.3034 30.2902 41.9257 29.9167 41.7177 29.45C41.5097 28.9834 41.4864 28.4571 41.6523 27.9744C41.8008 27.495 42.1267 27.0879 42.5656 26.8333C43.0044 26.5788 43.5244 26.4953 44.0228 26.5993Z" fill="#FF5676"/>
</svg>
