<svg width="80" height="80" viewBox="0 0 80 80" fill="none" xmlns="http://www.w3.org/2000/svg">
<rect x="0.5" y="0.5" width="79" height="79" rx="15.5" fill="#FF9843" fill-opacity="0.07" stroke="#FF9843"/>
<path d="M59.3808 54.373H55.9762V53.135C55.9762 52.9067 55.8516 52.7072 55.6668 52.5994V41.599C55.8519 41.4915 55.9762 41.2918 55.9762 41.0634V39.8254H56.9048C57.2461 39.8254 57.524 39.5475 57.524 39.2062V36.111C57.524 35.7698 57.2461 35.4919 56.9048 35.4919H54.1191V31.9022L55.5119 30.299C55.6328 30.1596 55.6869 29.9762 55.6597 29.796C55.6333 29.6134 55.5275 29.4517 55.3704 29.3527L40.8531 20.1018C40.6386 19.9662 40.3618 19.9657 40.1458 20.1026L25.6312 29.3521C25.4725 29.452 25.3667 29.6136 25.3403 29.7962C25.3131 29.9764 25.3675 30.1598 25.488 30.2992L26.8809 31.9025V35.4921H24.0952C23.7539 35.4921 23.476 35.77 23.476 36.1113V39.2065C23.476 39.5478 23.7539 39.8256 24.0952 39.8256H25.3332V41.0637C25.3332 41.292 25.4579 41.4915 25.6427 41.5993V52.5996C25.4576 52.7071 25.3332 52.9069 25.3332 53.1352V54.3733L21.6191 54.373C21.2779 54.373 21 54.6509 21 54.9922V58.3968C21 58.7381 21.2779 59.0159 21.6191 59.0159H59.3809C59.7221 59.0159 60 58.7381 60 58.3968V54.9922C60 54.6509 59.7221 54.373 59.3808 54.373ZM27.5001 31.9425L40.5 23.6377L53.4999 31.9425V35.4918H27.5001V31.9425ZM24.0952 39.2064V38.2778H56.9047V39.2064H24.0952ZM52.2618 52.5156V41.6825H55.0475V52.5156H52.2618ZM48.238 52.2897V41.5987C48.4231 41.4912 48.5474 41.2914 48.5474 41.0631V39.8251H51.3332V41.0631C51.3332 41.2914 51.4578 41.4909 51.6426 41.5987V52.5991C51.4575 52.7066 51.3332 52.9063 51.3332 53.1347V54.3727H48.7733C48.7192 54.2791 48.6411 54.201 48.5474 54.1468V52.8252C48.5474 52.5969 48.4228 52.3971 48.238 52.2896L48.238 52.2897ZM29.6665 52.5992V41.5988C29.8516 41.4913 29.9759 41.2915 29.9759 41.0632V39.8252H32.7617V41.0632C32.7617 41.2915 32.8863 41.491 33.0711 41.5988V52.2898C32.886 52.3973 32.7617 52.5971 32.7617 52.8254V54.0635C32.5333 54.0635 32.3338 54.1881 32.2261 54.3729H29.9759V53.1349C29.9759 52.9065 29.8515 52.707 29.6665 52.5993L29.6665 52.5992ZM32.7617 54.6825H48.2377V55.9205H32.7617V54.6825ZM36.476 41.6825V52.2064H33.6903V41.6825H36.476ZM44.2144 41.599V42.6111H37.0954V41.599C37.2804 41.4915 37.4048 41.2917 37.4048 41.0634V39.8253H43.9049V41.0634C43.9046 41.2917 44.0293 41.4915 44.2144 41.599ZM40.8095 52.5158V43.23H44.2141V52.29C44.1205 52.3442 44.0424 52.4223 43.9882 52.5159L40.8095 52.5158ZM43.9047 53.1349V54.0635H37.4046V53.1349H43.9047ZM40.1906 43.2305V52.5162H37.3213C37.2671 52.4226 37.189 52.3445 37.0954 52.2903V43.2303L40.1906 43.2305ZM47.6189 41.6827V52.2065H44.8332V41.6827H47.6189ZM26.2619 52.5159V41.6827H29.0477V52.5159H26.2619ZM29.976 58.3968H21.619V57.1588H29.976V58.3968ZM29.976 56.5397H21.619V54.9919H32.1428V55.9205H30.5951C30.2538 55.9208 29.9759 56.1986 29.9759 56.5396L29.976 56.5397ZM50.4043 58.3968H30.5947V56.5397H50.4043V58.3968ZM59.3807 58.3968H51.0237V57.1588H59.3807V58.3968ZM59.3807 56.5397H51.0237C51.0237 56.1984 50.7458 55.9205 50.4045 55.9205H48.8568V54.9919H59.3806L59.3807 56.5397Z" fill="#FF9843"/>
<path d="M40.4999 25.8969C38.1104 25.8969 36.1667 27.8406 36.1667 30.2301C36.1667 32.6196 38.1104 34.5633 40.4999 34.5633C42.8894 34.5633 44.8331 32.6196 44.8331 30.2301C44.8331 27.8409 42.8894 25.8969 40.4999 25.8969ZM40.4999 33.9446C38.4518 33.9446 36.7856 32.2785 36.7856 30.2303C36.7856 28.1821 38.4518 26.516 40.4999 26.516C42.5481 26.516 44.2142 28.1821 44.2142 30.2303C44.2142 32.2788 42.5481 33.9446 40.4999 33.9446Z" fill="#FF9843"/>
<path d="M40.5684 32C40.214 32 39.9368 31.915 39.7368 31.7449C39.5368 31.5729 39.4368 31.3092 39.4368 30.9539V29.0971H40.0737V30.9454C40.0737 31.1231 40.1175 31.2516 40.2053 31.331C40.293 31.4085 40.4149 31.4472 40.5711 31.4472C40.6763 31.4472 40.7667 31.4264 40.8421 31.3848C40.9193 31.3433 40.9842 31.2903 41.0368 31.2261C41.0667 31.1883 41.0912 31.1486 41.1105 31.107C41.1316 31.0654 41.1474 31.0239 41.1579 30.9823C41.1684 30.9388 41.1737 30.8972 41.1737 30.8575C41.1737 30.7706 41.1465 30.7045 41.0921 30.6591C41.0395 30.6137 40.9518 30.5911 40.8289 30.5911C40.7675 30.5911 40.7053 30.5939 40.6421 30.5996C40.5807 30.6034 40.5175 30.6081 40.4526 30.6137L40.4921 30.0836C40.5605 30.0798 40.6263 30.0761 40.6895 30.0723C40.7526 30.0685 40.8211 30.0666 40.8947 30.0666C41.193 30.0666 41.4167 30.129 41.5658 30.2537C41.7167 30.3785 41.7921 30.5646 41.7921 30.8122C41.7921 30.8821 41.7851 30.9558 41.7711 31.0333C41.757 31.1089 41.736 31.1845 41.7079 31.2601C41.6816 31.3357 41.6456 31.4075 41.6 31.4755C41.5018 31.6343 41.3658 31.7619 41.1921 31.8583C41.0184 31.9528 40.8105 32 40.5684 32ZM39.0579 29.6187L39.0237 29.0914H41.9632L42 29.6187H39.0579ZM39.4342 29.1425V28.8363C39.4342 28.7456 39.414 28.6747 39.3737 28.6237C39.3351 28.5726 39.2719 28.5471 39.1842 28.5471H39.0342L39 28H39.1816C39.4728 28 39.6939 28.0661 39.8447 28.1984C39.9974 28.3307 40.0737 28.5434 40.0737 28.8363V29.1425H39.4342Z" fill="#FF9843"/>
<path d="M41.7379 45.706C41.567 45.706 41.4284 45.8445 41.4284 46.0154V49.1106C41.4284 49.2815 41.567 49.4201 41.7379 49.4201C41.9088 49.4201 42.0473 49.2815 42.0473 49.1106V46.0154C42.0476 45.8445 41.9091 45.706 41.7379 45.706Z" fill="#FF9843"/>
<path d="M39.2619 49.4208C39.4328 49.4208 39.5713 49.2823 39.5713 49.1114V46.0162C39.5713 45.8453 39.4328 45.7067 39.2619 45.7067C39.091 45.7067 38.9525 45.8453 38.9525 46.0162V49.1114C38.9522 49.2823 39.0907 49.4208 39.2619 49.4208Z" fill="#FF9843"/>
</svg>
