<svg width="215" height="245" viewBox="0 0 215 245" fill="none" xmlns="http://www.w3.org/2000/svg">
<g filter="url(#filter0_d_1_32)">
<g filter="url(#filter1_d_1_32)">
<rect x="25" y="21" width="147" height="176" rx="12" fill="#00D054"/>
</g>
<mask id="mask0_1_32" style="mask-type:alpha" maskUnits="userSpaceOnUse" x="25" y="22" width="147" height="176">
<rect x="25" y="22" width="147" height="176" rx="12" fill="#00FD66"/>
</mask>
<g mask="url(#mask0_1_32)">
<circle cx="47.5" cy="149.5" r="136.5" fill="#00B74A"/>
</g>
<path fill-rule="evenodd" clip-rule="evenodd" d="M65.5648 41.3246C66.4638 39.8952 66.4823 38.7202 65.6264 37.7269C64.7704 36.7336 63.6559 36.5762 62.2766 37.1213C61.6608 35.6071 60.7987 34.9651 59.5241 35.0014C58.2495 35.0378 57.4921 35.7282 56.9687 37.1334C56.6571 36.951 56.3085 36.8385 55.9476 36.804C55.5868 36.7694 55.2227 36.8137 54.8812 36.9335C54.3836 37.1158 53.9365 37.4103 53.5758 37.7935C52.6706 38.8111 52.7876 39.9921 53.8529 41.7001C57.6706 39.4046 61.5623 39.3501 65.5648 41.3246ZM70.7434 53.2804C70.7688 53.3466 70.7854 53.4159 70.7927 53.4863C71.676 57.3452 71.2766 61.381 69.6535 65C68.4966 63.7134 67.0748 62.6835 65.4823 61.9787C63.8899 61.2738 62.1632 60.9101 60.417 60.9118C58.8216 60.9127 57.2413 61.215 55.7618 61.8021C56.4833 60.6132 56.9428 59.2885 57.1103 57.9137C57.6029 54.0496 55.1029 50.1067 51.2297 48.6592C51.1197 48.6217 51.0184 48.5728 50.9178 48.5243C50.8721 48.5022 50.8264 48.4801 50.7802 48.4593C51.6731 44.8677 55.2322 41.9363 59.2101 41.5729C60.985 41.4143 62.7692 41.7554 64.3545 42.5565C65.9398 43.3575 67.2608 44.5856 68.1633 46.0972C65.8727 47.1632 64.9367 48.956 65.6633 50.9425C66.3899 52.9291 68.2003 53.7407 70.7003 53.2016C70.7028 53.2115 70.7104 53.2203 70.7185 53.2298C70.7304 53.2437 70.7434 53.2588 70.7434 53.2804ZM60.4981 49.1035C60.9492 49.4894 61.5248 49.7054 62.1226 49.713C62.7293 49.7101 63.3145 49.4924 63.7714 49.0998C64.2282 48.7072 64.526 48.1659 64.6103 47.575C64.6431 47.4556 64.6506 47.3308 64.6322 47.2084C64.6139 47.086 64.5702 46.9686 64.5037 46.8635C64.4373 46.7584 64.3497 46.6679 64.2462 46.5975C64.1427 46.5272 64.0256 46.4785 63.9022 46.4546C63.4158 46.3879 63.0648 46.7089 62.9539 47.3146C62.9539 47.5298 62.867 47.7363 62.7123 47.8885C62.5575 48.0407 62.3476 48.1262 62.1288 48.1262C61.91 48.1262 61.7001 48.0407 61.5454 47.8885C61.3906 47.7363 61.3037 47.5298 61.3037 47.3146C61.1928 46.6786 60.8049 46.3758 60.3185 46.4606C59.832 46.5454 59.5611 46.9997 59.6596 47.6053C59.7499 48.1866 60.0471 48.7175 60.4981 49.1035ZM47.3257 49.713C47.9286 49.7092 48.5311 49.7416 49.1299 49.8099C50.8828 50.0752 52.4819 50.9467 53.64 52.2678C54.798 53.5889 55.439 55.273 55.4477 57.0173C55.46 60.6513 52.7137 63.928 49.1053 64.2853C46.9894 64.455 44.8644 64.4853 42.7444 64.3761C42.3883 64.3437 42.0436 64.2354 41.7343 64.0587C41.4251 63.8821 41.1586 63.6413 40.9535 63.3531C40.7484 63.0649 40.6096 62.7362 40.5467 62.39C40.4838 62.0437 40.4983 61.688 40.5892 61.3478C40.7106 60.9134 40.9447 60.5175 41.2685 60.199C41.5924 59.8804 41.9949 59.6502 42.4365 59.5308C40.0042 59.3915 39.1237 58.8525 38.8774 57.4352C38.6803 56.2723 39.3269 55.2548 40.7247 54.6492C40.1872 54.6357 39.6508 54.5953 39.1176 54.528C38.4852 54.4399 37.9124 54.1137 37.52 53.6181C37.1275 53.1225 36.9461 52.4964 37.014 51.8718C37.0819 51.2472 37.3938 50.6729 37.8839 50.2702C38.374 49.8674 39.004 49.6676 39.6409 49.713H47.3257ZM46.0746 59.9638C46.6586 60.3461 47.3447 60.5495 48.0462 60.5483C48.5127 60.55 48.9748 60.4606 49.4059 60.2854C49.837 60.1102 50.2285 59.8526 50.5578 59.5276C50.8871 59.2026 51.1476 58.8166 51.3242 58.392C51.5008 57.9673 51.5901 57.5125 51.5869 57.0537C51.5856 56.3637 51.3764 55.6895 50.9857 55.1165C50.5949 54.5435 50.0402 54.0973 49.3916 53.8343C48.7431 53.5714 48.0298 53.5035 47.342 53.6393C46.6543 53.7751 46.0229 54.1084 45.5277 54.5972C45.0325 55.0859 44.6958 55.7081 44.5601 56.3851C44.4245 57.062 44.496 57.7633 44.7655 58.4003C45.0351 59.0374 45.4907 59.5814 46.0746 59.9638ZM69.598 47.6599C71.1085 48.0414 72.5164 48.742 73.7236 49.7131C72.4742 50.7158 71.0083 51.4243 69.4379 51.7845C69.061 51.8283 68.6792 51.7675 68.3357 51.6088C67.8561 51.399 67.4735 51.0207 67.2628 50.5479C67.0521 50.0751 67.0284 49.542 67.1965 49.0529C67.347 48.5673 67.6772 48.1549 68.1218 47.897C68.5663 47.6391 69.0931 47.5545 69.598 47.6599Z" fill="#00D054"/>
</g>
<defs>
<filter id="filter0_d_1_32" x="0" y="0" width="215" height="245" filterUnits="userSpaceOnUse" color-interpolation-filters="sRGB">
<feFlood flood-opacity="0" result="BackgroundImageFix"/>
<feColorMatrix in="SourceAlpha" type="matrix" values="0 0 0 0 0 0 0 0 0 0 0 0 0 0 0 0 0 0 127 0" result="hardAlpha"/>
<feOffset dx="9" dy="13"/>
<feGaussianBlur stdDeviation="17"/>
<feComposite in2="hardAlpha" operator="out"/>
<feColorMatrix type="matrix" values="0 0 0 0 0 0 0 0 0 0 0 0 0 0 0 0 0 0 0.15 0"/>
<feBlend mode="normal" in2="BackgroundImageFix" result="effect1_dropShadow_1_32"/>
<feBlend mode="normal" in="SourceGraphic" in2="effect1_dropShadow_1_32" result="shape"/>
</filter>
<filter id="filter1_d_1_32" x="21" y="21" width="155" height="184" filterUnits="userSpaceOnUse" color-interpolation-filters="sRGB">
<feFlood flood-opacity="0" result="BackgroundImageFix"/>
<feColorMatrix in="SourceAlpha" type="matrix" values="0 0 0 0 0 0 0 0 0 0 0 0 0 0 0 0 0 0 127 0" result="hardAlpha"/>
<feOffset dy="4"/>
<feGaussianBlur stdDeviation="2"/>
<feComposite in2="hardAlpha" operator="out"/>
<feColorMatrix type="matrix" values="0 0 0 0 0 0 0 0 0 0.717647 0 0 0 0 0.290196 0 0 0 0.1 0"/>
<feBlend mode="normal" in2="BackgroundImageFix" result="effect1_dropShadow_1_32"/>
<feBlend mode="normal" in="SourceGraphic" in2="effect1_dropShadow_1_32" result="shape"/>
</filter>
</defs>
</svg>
