<svg width="121" height="143" viewBox="0 0 121 143" fill="none" xmlns="http://www.w3.org/2000/svg">
<rect x="4" width="113" height="135.293" rx="9.22449" fill="#FF5676"/>
<mask id="mask0_1_19" style="mask-type:alpha" maskUnits="userSpaceOnUse" x="4" y="0" width="113" height="137">
<rect x="4" y="0.7687" width="113" height="135.293" rx="9.22449" fill="#00FD66"/>
</mask>
<g mask="url(#mask0_1_19)">
<circle cx="21.2959" cy="98.7789" r="104.929" fill="#FF2B52"/>
</g>
<path fill-rule="evenodd" clip-rule="evenodd" d="M35.1828 15.6237C35.8739 14.5249 35.8881 13.6217 35.2301 12.8581C34.5722 12.0946 33.7154 11.9735 32.6551 12.3926C32.1818 11.2286 31.5191 10.7351 30.5393 10.763C29.5594 10.791 28.9772 11.3217 28.5749 12.4019C28.3354 12.2617 28.0674 12.1752 27.79 12.1487C27.5126 12.1221 27.2327 12.1561 26.9702 12.2482C26.5877 12.3883 26.244 12.6148 25.9667 12.9093C25.2709 13.6915 25.3609 14.5994 26.1798 15.9123C29.1145 14.1478 32.106 14.1059 35.1828 15.6237ZM39.1635 24.8142C39.183 24.8651 39.1957 24.9183 39.2013 24.9725C39.8803 27.9388 39.5734 31.0412 38.3256 33.8231C37.4363 32.8341 36.3433 32.0424 35.1192 31.5006C33.8951 30.9588 32.5678 30.6792 31.2254 30.6805C29.9991 30.6812 28.7843 30.9136 27.6469 31.3649C28.2016 30.451 28.5548 29.4326 28.6836 28.3759C29.0623 25.4055 27.1405 22.3746 24.1631 21.2618C24.0786 21.233 24.0007 21.1954 23.9234 21.1581C23.8882 21.1411 23.8531 21.1242 23.8176 21.1082C24.504 18.3473 27.2399 16.0939 30.2977 15.8146C31.6621 15.6926 33.0337 15.9548 34.2523 16.5706C35.4709 17.1864 36.4864 18.1304 37.1801 19.2924C35.4193 20.1119 34.6998 21.49 35.2584 23.0171C35.8169 24.5442 37.2085 25.168 39.1303 24.7537C39.1322 24.7612 39.1381 24.768 39.1443 24.7753C39.1534 24.786 39.1635 24.7976 39.1635 24.8142ZM31.2878 21.6034C31.6346 21.9001 32.0771 22.0661 32.5366 22.0719C33.0029 22.0697 33.4528 21.9023 33.804 21.6005C34.1552 21.2987 34.3841 20.8827 34.4489 20.4284C34.4741 20.3366 34.4799 20.2407 34.4658 20.1466C34.4517 20.0525 34.418 19.9623 34.367 19.8815C34.3159 19.8007 34.2485 19.7311 34.169 19.677C34.0895 19.623 33.9995 19.5855 33.9046 19.5671C33.5306 19.5159 33.2608 19.7627 33.1756 20.2282C33.1756 20.3937 33.1088 20.5524 32.9899 20.6694C32.8709 20.7864 32.7096 20.8521 32.5414 20.8521C32.3731 20.8521 32.2118 20.7864 32.0929 20.6694C31.9739 20.5524 31.9071 20.3937 31.9071 20.2282C31.8219 19.7394 31.5237 19.5066 31.1497 19.5718C30.7758 19.637 30.5675 19.9861 30.6432 20.4517C30.7127 20.8986 30.9411 21.3067 31.2878 21.6034ZM21.1618 22.0719C21.6252 22.069 22.0883 22.0939 22.5487 22.1464C23.8961 22.3503 25.1254 23.0202 26.0156 24.0358C26.9058 25.0513 27.3985 26.3459 27.4052 27.6868C27.4146 30.4803 25.3035 32.9991 22.5297 33.2737C20.9032 33.4042 19.2697 33.4275 17.6401 33.3436C17.3663 33.3187 17.1014 33.2354 16.8636 33.0996C16.6259 32.9638 16.4211 32.7787 16.2634 32.5571C16.1057 32.3356 15.999 32.083 15.9507 31.8168C15.9023 31.5506 15.9135 31.2772 15.9834 31.0157C16.0767 30.6818 16.2566 30.3774 16.5056 30.1326C16.7545 29.8877 17.0639 29.7107 17.4034 29.619C15.5337 29.5119 14.8568 29.0975 14.6675 28.008C14.516 27.1141 15.013 26.332 16.0875 25.8664C15.6744 25.856 15.262 25.825 14.8521 25.7733C14.366 25.7055 13.9257 25.4547 13.624 25.0738C13.3223 24.6928 13.1828 24.2115 13.235 23.7314C13.2872 23.2513 13.527 22.8098 13.9037 22.5002C14.2805 22.1906 14.7648 22.037 15.2544 22.0719H21.1618ZM20.2 29.9518C20.6489 30.2457 21.1763 30.402 21.7156 30.4011C22.0742 30.4024 22.4294 30.3337 22.7608 30.199C23.0922 30.0643 23.3932 29.8663 23.6463 29.6165C23.8994 29.3667 24.0997 29.07 24.2354 28.7435C24.3712 28.4171 24.4398 28.0674 24.4373 27.7147C24.4364 27.1843 24.2756 26.6661 23.9752 26.2256C23.6748 25.7851 23.2484 25.4421 22.7498 25.24C22.2513 25.0379 21.703 24.9857 21.1743 25.0901C20.6456 25.1945 20.1602 25.4507 19.7796 25.8264C19.399 26.2021 19.1401 26.6804 19.0358 27.2008C18.9316 27.7212 18.9865 28.2603 19.1937 28.7499C19.401 29.2396 19.7512 29.6578 20.2 29.9518ZM38.2829 20.4937C39.444 20.7869 40.5263 21.3255 41.4543 22.072C40.4938 22.8428 39.367 23.3874 38.1598 23.6643C37.8701 23.698 37.5766 23.6512 37.3125 23.5293C36.9439 23.368 36.6497 23.0771 36.4878 22.7137C36.3258 22.3503 36.3076 21.9404 36.4368 21.5645C36.5525 21.1912 36.8063 20.8742 37.1481 20.6759C37.4898 20.4777 37.8947 20.4127 38.2829 20.4937Z" fill="#FF5676"/>
</svg>
