<svg width="37" height="30" viewBox="0 0 37 30" fill="none" xmlns="http://www.w3.org/2000/svg">
<path fill-rule="evenodd" clip-rule="evenodd" d="M28.5648 6.32459C29.4638 4.89522 29.4823 3.72023 28.6264 2.72694C27.7704 1.73365 26.6559 1.57618 25.2766 2.12128C24.6608 0.60712 23.7987 -0.0348834 22.5241 0.00145638C21.2495 0.0377962 20.4921 0.728246 19.9687 2.13339C19.6571 1.95102 19.3085 1.83854 18.9476 1.80399C18.5868 1.76944 18.2227 1.81368 17.8812 1.93353C17.3836 2.11579 16.9365 2.41036 16.5758 2.79356C15.6706 3.81107 15.7876 4.99212 16.8529 6.7001C20.6706 4.40463 24.5623 4.35012 28.5648 6.32459ZM33.7434 18.2804C33.7688 18.3467 33.7854 18.4159 33.7927 18.4863C34.676 22.3452 34.2766 26.3811 32.6535 30C31.4966 28.7134 30.0748 27.6835 28.4823 26.9787C26.8899 26.2738 25.1632 25.9102 23.417 25.9118C21.8216 25.9127 20.2413 26.215 18.7618 26.8021C19.4833 25.6133 19.9428 24.2885 20.1103 22.9137C20.6029 19.0496 18.1029 15.1067 14.2297 13.6592C14.1197 13.6217 14.0184 13.5728 13.9178 13.5243C13.8721 13.5022 13.8264 13.4802 13.7802 13.4593C14.6731 9.86774 18.2322 6.93633 22.2101 6.57293C23.985 6.41427 25.7692 6.75538 27.3545 7.55647C28.9398 8.35756 30.2608 9.58559 31.1633 11.0972C28.8727 12.1632 27.9367 13.956 28.6633 15.9425C29.3899 17.9291 31.2003 18.7407 33.7003 18.2017C33.7028 18.2115 33.7104 18.2204 33.7185 18.2298C33.7304 18.2437 33.7434 18.2588 33.7434 18.2804ZM23.4981 14.1035C23.9492 14.4894 24.5248 14.7054 25.1226 14.713C25.7293 14.7101 26.3145 14.4924 26.7714 14.0998C27.2282 13.7072 27.526 13.1659 27.6103 12.575C27.6431 12.4556 27.6506 12.3308 27.6322 12.2084C27.6139 12.086 27.5702 11.9686 27.5037 11.8635C27.4373 11.7584 27.3497 11.6679 27.2462 11.5975C27.1427 11.5272 27.0256 11.4785 26.9022 11.4546C26.4158 11.388 26.0648 11.7089 25.9539 12.3146C25.9539 12.5299 25.867 12.7363 25.7123 12.8885C25.5575 13.0407 25.3476 13.1262 25.1288 13.1262C24.91 13.1262 24.7001 13.0407 24.5454 12.8885C24.3906 12.7363 24.3037 12.5299 24.3037 12.3146C24.1928 11.6787 23.8049 11.3758 23.3185 11.4606C22.832 11.5454 22.5611 11.9997 22.6596 12.6053C22.7499 13.1866 23.0471 13.7175 23.4981 14.1035ZM10.3257 14.713C10.9286 14.7092 11.5311 14.7416 12.1299 14.8099C13.8828 15.0752 15.4819 15.9467 16.64 17.2678C17.798 18.5889 18.439 20.273 18.4477 22.0173C18.46 25.6513 15.7137 28.928 12.1053 29.2853C9.98942 29.455 7.8644 29.4854 5.74441 29.3762C5.38829 29.3437 5.04361 29.2354 4.73434 29.0588C4.42507 28.8821 4.15862 28.6413 3.95352 28.3531C3.74843 28.0649 3.60959 27.7363 3.54668 27.39C3.48377 27.0437 3.49829 26.6881 3.58923 26.3478C3.71058 25.9134 3.94467 25.5175 4.26853 25.199C4.59239 24.8805 4.99489 24.6502 5.43653 24.5308C3.00425 24.3915 2.1237 23.8525 1.87739 22.4352C1.68035 21.2724 2.3269 20.2549 3.7247 19.6492C3.18723 19.6357 2.65083 19.5953 2.11755 19.5281C1.48522 19.4399 0.912407 19.1137 0.519952 18.6181C0.127496 18.1225 -0.0539307 17.4964 0.0139654 16.8718C0.0818615 16.2472 0.393768 15.6729 0.883873 15.2702C1.37398 14.8674 2.00396 14.6677 2.64094 14.713H10.3257ZM9.07463 24.9638C9.65858 25.3461 10.3447 25.5496 11.0462 25.5484C11.5127 25.55 11.9748 25.4606 12.4059 25.2854C12.837 25.1102 13.2285 24.8526 13.5578 24.5276C13.8871 24.2027 14.1476 23.8167 14.3242 23.392C14.5008 22.9674 14.5901 22.5125 14.5869 22.0537C14.5856 21.3637 14.3764 20.6896 13.9857 20.1165C13.5949 19.5435 13.0402 19.0973 12.3916 18.8344C11.7431 18.5714 11.0298 18.5036 10.342 18.6393C9.65426 18.7751 9.02287 19.1085 8.5277 19.5972C8.03253 20.0859 7.69581 20.7081 7.56015 21.3851C7.42449 22.062 7.49597 22.7634 7.76554 23.4004C8.03512 24.0374 8.49068 24.5814 9.07463 24.9638ZM32.598 12.6599C34.1085 13.0414 35.5164 13.742 36.7236 14.7131C35.4742 15.7158 34.0083 16.4243 32.4379 16.7845C32.061 16.8283 31.6792 16.7675 31.3357 16.6088C30.8561 16.399 30.4735 16.0207 30.2628 15.5479C30.0521 15.0751 30.0284 14.542 30.1965 14.0529C30.347 13.5673 30.6772 13.1549 31.1218 12.897C31.5663 12.6391 32.0931 12.5545 32.598 12.6599Z" fill="#00D054"/>
</svg>
