<svg width="21" height="19" viewBox="0 0 21 19" fill="none" xmlns="http://www.w3.org/2000/svg">
<g filter="url(#filter0_d_1337_2019)">
<path d="M8.83317 3.50033H12.1665C12.1665 3.0583 11.9909 2.63437 11.6783 2.32181C11.3658 2.00925 10.9419 1.83366 10.4998 1.83366C10.0578 1.83366 9.63389 2.00925 9.32133 2.32181C9.00877 2.63437 8.83317 3.0583 8.83317 3.50033ZM7.1665 3.50033C7.1665 2.61627 7.51769 1.76842 8.14281 1.1433C8.76794 0.518182 9.61578 0.166992 10.4998 0.166992C11.3839 0.166992 12.2317 0.518182 12.8569 1.1433C13.482 1.76842 13.8332 2.61627 13.8332 3.50033H17.9998C18.2209 3.50033 18.4328 3.58812 18.5891 3.7444C18.7454 3.90068 18.8332 4.11265 18.8332 4.33366C18.8332 4.55467 18.7454 4.76663 18.5891 4.92291C18.4328 5.0792 18.2209 5.16699 17.9998 5.16699H17.2648L16.5265 13.7837C16.4555 14.6157 16.0748 15.3908 15.4597 15.9556C14.8446 16.5204 14.0399 16.8338 13.2048 16.8337H7.79484C6.95976 16.8338 6.15507 16.5204 5.53996 15.9556C4.92486 15.3908 4.54415 14.6157 4.47317 13.7837L3.73484 5.16699H2.99984C2.77882 5.16699 2.56686 5.0792 2.41058 4.92291C2.2543 4.76663 2.1665 4.55467 2.1665 4.33366C2.1665 4.11265 2.2543 3.90068 2.41058 3.7444C2.56686 3.58812 2.77882 3.50033 2.99984 3.50033H7.1665ZM12.9998 8.50033C12.9998 8.27931 12.912 8.06735 12.7558 7.91107C12.5995 7.75479 12.3875 7.66699 12.1665 7.66699C11.9455 7.66699 11.7335 7.75479 11.5772 7.91107C11.421 8.06735 11.3332 8.27931 11.3332 8.50033V11.8337C11.3332 12.0547 11.421 12.2666 11.5772 12.4229C11.7335 12.5792 11.9455 12.667 12.1665 12.667C12.3875 12.667 12.5995 12.5792 12.7558 12.4229C12.912 12.2666 12.9998 12.0547 12.9998 11.8337V8.50033ZM8.83317 7.66699C9.05418 7.66699 9.26615 7.75479 9.42243 7.91107C9.57871 8.06735 9.6665 8.27931 9.6665 8.50033V11.8337C9.6665 12.0547 9.57871 12.2666 9.42243 12.4229C9.26615 12.5792 9.05418 12.667 8.83317 12.667C8.61216 12.667 8.4002 12.5792 8.24392 12.4229C8.08764 12.2666 7.99984 12.0547 7.99984 11.8337V8.50033C7.99984 8.27931 8.08764 8.06735 8.24392 7.91107C8.4002 7.75479 8.61216 7.66699 8.83317 7.66699ZM6.13317 13.642C6.16867 14.0582 6.35914 14.4458 6.66687 14.7283C6.9746 15.0107 7.37716 15.1673 7.79484 15.167H13.2048C13.6222 15.1668 14.0244 15.0101 14.3317 14.7277C14.6391 14.4453 14.8294 14.0579 14.8648 13.642L15.5915 5.16699H5.40817L6.13484 13.642H6.13317Z" fill="#F5002E"/>
</g>
<defs>
<filter id="filter0_d_1337_2019" x="-1.8335" y="0.166992" width="24.6665" height="24.667" filterUnits="userSpaceOnUse" color-interpolation-filters="sRGB">
<feFlood flood-opacity="0" result="BackgroundImageFix"/>
<feColorMatrix in="SourceAlpha" type="matrix" values="0 0 0 0 0 0 0 0 0 0 0 0 0 0 0 0 0 0 127 0" result="hardAlpha"/>
<feOffset dy="4"/>
<feGaussianBlur stdDeviation="2"/>
<feComposite in2="hardAlpha" operator="out"/>
<feColorMatrix type="matrix" values="0 0 0 0 0 0 0 0 0 0 0 0 0 0 0 0 0 0 0.25 0"/>
<feBlend mode="normal" in2="BackgroundImageFix" result="effect1_dropShadow_1337_2019"/>
<feBlend mode="normal" in="SourceGraphic" in2="effect1_dropShadow_1337_2019" result="shape"/>
</filter>
</defs>
</svg>
