<svg width="88" height="88" viewBox="0 0 88 88" fill="none" xmlns="http://www.w3.org/2000/svg">
<g filter="url(#filter0_d_23_7)">
<rect x="4" width="80" height="80" rx="24" fill="url(#paint0_linear_23_7)"/>
</g>
<path d="M29.9376 48.288C28.2576 48.288 26.7856 47.92 25.5216 47.184C24.2736 46.448 23.2896 45.432 22.5696 44.136C21.8656 42.824 21.5136 41.312 21.5136 39.6C21.5136 37.888 21.8656 36.384 22.5696 35.088C23.2896 33.776 24.2736 32.752 25.5216 32.016C26.7856 31.28 28.2576 30.912 29.9376 30.912C31.6016 30.912 33.0656 31.28 34.3296 32.016C35.5936 32.752 36.5776 33.776 37.2816 35.088C37.9856 36.384 38.3376 37.888 38.3376 39.6C38.3376 41.312 37.9856 42.824 37.2816 44.136C36.5776 45.432 35.5936 46.448 34.3296 47.184C33.0656 47.92 31.6016 48.288 29.9376 48.288ZM29.9376 45.528C31.5376 45.528 32.8096 45 33.7536 43.944C34.7136 42.888 35.1936 41.44 35.1936 39.6C35.1936 37.76 34.7136 36.312 33.7536 35.256C32.8096 34.2 31.5376 33.672 29.9376 33.672C28.3376 33.672 27.0576 34.2 26.0976 35.256C25.1376 36.312 24.6576 37.76 24.6576 39.6C24.6576 41.44 25.1376 42.888 26.0976 43.944C27.0576 45 28.3376 45.528 29.9376 45.528ZM44.3526 48V33.672H39.4566V31.2H52.3446V33.672H47.4246V48H44.3526ZM54.6203 48V31.2H60.8363C62.1803 31.2 63.2923 31.424 64.1723 31.872C65.0523 32.32 65.7083 32.936 66.1403 33.72C66.5723 34.504 66.7883 35.384 66.7883 36.36C66.7883 37.288 66.5803 38.144 66.1643 38.928C65.7483 39.696 65.1003 40.32 64.2203 40.8C63.3403 41.264 62.2123 41.496 60.8363 41.496H57.6923V48H54.6203ZM57.6923 39H60.6443C61.7163 39 62.4843 38.768 62.9483 38.304C63.4283 37.824 63.6683 37.176 63.6683 36.36C63.6683 35.528 63.4283 34.88 62.9483 34.416C62.4843 33.936 61.7163 33.696 60.6443 33.696H57.6923V39Z" fill="white"/>
<defs>
<filter id="filter0_d_23_7" x="0" y="0" width="88" height="88" filterUnits="userSpaceOnUse" color-interpolation-filters="sRGB">
<feFlood flood-opacity="0" result="BackgroundImageFix"/>
<feColorMatrix in="SourceAlpha" type="matrix" values="0 0 0 0 0 0 0 0 0 0 0 0 0 0 0 0 0 0 127 0" result="hardAlpha"/>
<feOffset dy="4"/>
<feGaussianBlur stdDeviation="2"/>
<feComposite in2="hardAlpha" operator="out"/>
<feColorMatrix type="matrix" values="0 0 0 0 1 0 0 0 0 0.596078 0 0 0 0 0.262745 0 0 0 0.13 0"/>
<feBlend mode="normal" in2="BackgroundImageFix" result="effect1_dropShadow_23_7"/>
<feBlend mode="normal" in="SourceGraphic" in2="effect1_dropShadow_23_7" result="shape"/>
</filter>
<linearGradient id="paint0_linear_23_7" x1="77.1429" y1="12.5714" x2="4" y2="80" gradientUnits="userSpaceOnUse">
<stop stop-color="#FF9843"/>
<stop offset="1" stop-color="#FFBB84"/>
</linearGradient>
</defs>
</svg>
